Coordinates
version=1
nRows=17
nColumns=38
inDegrees=no

Units are S.I. units (second, meters, Newtons, ...)
If the header above contains a line with 'inDegrees', this indicates whether rotational values are in degrees (yes) or radians (no).

endheader
time	pelvis_tilt	pelvis_list	pelvis_rotation	pelvis_tx	pelvis_ty	pelvis_tz	hip_flexion_r	hip_adduction_r	hip_rotation_r	knee_angle_r	ankle_angle_r	subtalar_angle_r	mtp_angle_r	hip_flexion_l	hip_adduction_l	hip_rotation_l	knee_angle_l	ankle_angle_l	subtalar_angle_l	mtp_angle_l	lumbar_extension	lumbar_bending	lumbar_rotation	arm_flex_r	arm_add_r	arm_rot_r	elbow_flex_r	pro_sup_r	wrist_flex_r	wrist_dev_r	arm_flex_l	arm_add_l	arm_rot_l	elbow_flex_l	pro_sup_l	wrist_flex_l	wrist_dev_l
20.96	0.742444	1.50147	0.605606	0.747456	-0.549573	0.970318	0.0469733	-0.00587805	-0.0345932	0.562296	0.185636	0	0	0.102095	-0.0284991	-0.182108	0.100761	0.0598051	0	0	-0.103581	0.134702	0.139292	0.805783	-0.222802	0.455739	0.986546	1.5708	0	0	0.784278	-0.0705039	0.436222	0.91093	1.5708	0	0
20.97	0.712623	1.50135	0.636037	0.745693	-0.549046	0.970032	0.0663497	-0.00836255	-0.027301	0.593843	0.179132	0	0	0.103035	-0.0251332	-0.183315	0.0993651	0.0625961	0	0	-0.100542	0.134015	0.136737	0.804379	-0.223411	0.454652	0.986918	1.5708	0	0	0.782916	-0.0710466	0.438278	0.912924	1.5708	0	0
20.98	0.680827	1.50129	0.668675	0.743964	-0.548547	0.96971	0.0870186	-0.0107806	-0.0198048	0.627425	0.171343	0	0	0.103842	-0.0216184	-0.183555	0.0975869	0.0647955	0	0	-0.0975281	0.132921	0.13377	0.803518	-0.223467	0.453418	0.986537	1.5708	0	0	0.782243	-0.0723773	0.442208	0.914834	1.5708	0	0
20.99	0.649698	1.50127	0.700929	0.742277	-0.548082	0.969356	0.108554	-0.0130171	-0.0123459	0.66248	0.161611	0	0	0.10487	-0.0182469	-0.183723	0.0964537	0.0670889	0	0	-0.0946554	0.131498	0.130633	0.802967	-0.223175	0.451427	0.985762	1.5708	0	0	0.782231	-0.0740481	0.447363	0.916729	1.5708	0	0
21	0.616797	1.5014	0.735453	0.740594	-0.547639	0.968994	0.130678	-0.0152468	-0.00494648	0.698158	0.149531	0	0	0.106097	-0.0148066	-0.183767	0.0957035	0.0689094	0	0	-0.0918101	0.129586	0.126798	0.801998	-0.222852	0.448026	0.986162	1.5708	0	0	0.782433	-0.0764436	0.453422	0.919356	1.5708	0	0
21.01	0.600312	1.50226	0.754231	0.738934	-0.547186	0.96877	0.151364	-0.0168841	0.00206201	0.733463	0.136376	0	0	0.105737	-0.01153	-0.182901	0.0946248	0.0693633	0	0	-0.0905523	0.127665	0.122078	0.801005	-0.222738	0.444313	0.987875	1.5708	0	0	0.782764	-0.0788041	0.458593	0.922212	1.5708	0	0
21.02	0.573288	1.50248	0.783383	0.737395	-0.546816	0.968475	0.173923	-0.0177023	0.0100562	0.76972	0.122951	0	0	0.106688	-0.00837994	-0.182661	0.0940911	0.0695873	0	0	-0.0883768	0.125381	0.117358	0.799872	-0.222456	0.440643	0.990179	1.5708	0	0	0.782838	-0.0815776	0.464113	0.926071	1.5708	0	0
21.03	0.549534	1.50226	0.809429	0.735925	-0.546489	0.968164	0.196837	-0.0173257	0.0183257	0.805822	0.109212	0	0	0.108038	-0.00582594	-0.182434	0.0937124	0.0697764	0	0	-0.0861021	0.123377	0.11248	0.798796	-0.222502	0.437489	0.993499	1.5708	0	0	0.782417	-0.0845884	0.469282	0.931169	1.5708	0	0
21.04	0.531235	1.50176	0.830157	0.734534	-0.546173	0.96788	0.21946	-0.0157518	0.0267949	0.840913	0.0946761	0	0	0.109191	-0.00368541	-0.181599	0.0927497	0.0695433	0	0	-0.0839515	0.121695	0.107379	0.797709	-0.22274	0.434411	0.997817	1.5708	0	0	0.781204	-0.087946	0.473425	0.937767	1.5708	0	0
21.05	0.512518	1.50112	0.851337	0.733235	-0.545872	0.967633	0.241982	-0.0136361	0.0351369	0.874952	0.0798732	0	0	0.11033	-0.00158905	-0.180848	0.0916323	0.0687408	0	0	-0.0819118	0.119914	0.102201	0.796862	-0.223164	0.432175	1.00248	1.5708	0	0	0.779297	-0.0916244	0.476562	0.945794	1.5708	0	0
21.06	0.316215	1.49786	1.06005	0.730808	-0.546894	0.967283	0.277325	-0.0248242	0.0344549	0.91183	0.0659944	0	0	0.127023	0.00920811	-0.218088	0.094725	0.0660626	0	0	-0.0723118	0.108079	0.0864646	0.796461	-0.221384	0.427031	1.00616	1.5708	0	0	0.778722	-0.0963314	0.479155	0.954902	1.5708	0	0
21.07	0.46727	1.49908	0.901778	0.730774	-0.545293	0.967169	0.286552	-0.00935823	0.0486655	0.937794	0.0557832	0	0	0.113468	0.00261008	-0.181748	0.0897947	0.0663387	0	0	-0.0773579	0.116005	0.0916169	0.795172	-0.225627	0.430429	1.0144	1.5708	0	0	0.773554	-0.0995951	0.480751	0.965694	1.5708	0	0
21.08	0.479848	1.49892	0.892131	0.729593	-0.544988	0.967202	0.304254	-0.00593482	0.0534596	0.963208	0.0480543	0	0	0.111421	0.00349577	-0.180459	0.0861746	0.0637536	0	0	-0.0781314	0.115563	0.0863326	0.794714	-0.228972	0.431531	1.02365	1.5708	0	0	0.770119	-0.10394	0.481335	0.977609	1.5708	0	0
21.09	0.488143	1.49794	0.886725	0.728467	-0.544692	0.967225	0.321815	-0.00218334	0.0576876	0.985264	0.0442181	0	0	0.110457	0.00400591	-0.179536	0.082999	0.0615145	0	0	-0.0781646	0.115426	0.0811684	0.794482	-0.232332	0.433435	1.0326	1.5708	0	0	0.765875	-0.108613	0.480941	0.990489	1.5708	0	0
21.1	0.494143	1.49623	0.883603	0.727413	-0.544391	0.967259	0.339024	0.00189518	0.0612765	1.00425	0.0461099	0	0	0.110536	0.00387852	-0.178518	0.080756	0.0593211	0	0	-0.077651	0.115595	0.0759116	0.793931	-0.23633	0.436256	1.04296	1.5708	0	0	0.760454	-0.114137	0.479467	1.00581	1.5708	0	0
21.11	0.515415	1.49461	0.865468	0.726391	-0.544084	0.967422	0.353981	0.00642058	0.0632686	1.01908	0.0551122	0	0	0.109891	0.00282009	-0.176959	0.0785809	0.0569715	0	0	-0.0783237	0.116659	0.0707106	0.793725	-0.241114	0.440372	1.05394	1.5708	0	0	0.754891	-0.120115	0.478007	1.02182	1.5708	0	0
21.12	0.540909	1.49264	0.843229	0.725417	-0.543748	0.96762	0.36761	0.0111794	0.0643172	1.02954	0.0670034	0	0	0.109371	0.00123421	-0.174793	0.0764852	0.0542457	0	0	-0.0791632	0.118337	0.0655209	0.793664	-0.24654	0.445907	1.06578	1.5708	0	0	0.748453	-0.126861	0.475856	1.03985	1.5708	0	0
